<svg xmlns="http://www.w3.org/2000/svg" xmlns:svg="http://www.w3.org/2000/svg" id="svg8" width="122.718" height="122.718" version="1.1" viewBox="0 0 32.469 32.469"><defs id="defs2"><marker style="overflow:visible" id="marker2014" orient="auto" refX="0" refY="0"><path style="fill:#ffc843;fill-opacity:1;fill-rule:evenodd;stroke:#ffc843;stroke-width:1.00000003pt;stroke-opacity:1" id="path2012" d="M 5.77,0 -2.88,5 V -5 Z" transform="scale(0.2)"/></marker><marker id="marker1932" orient="auto" refX="0" refY="0" style="overflow:visible"><path id="path1930" d="M 8.7185878,4.0337352 -2.2072895,0.01601326 8.7185884,-4.0017078 c -1.7454984,2.3720609 -1.7354408,5.6174519 -6e-7,8.035443 z" transform="matrix(-0.3,0,0,-0.3,0.69,0)" style="fill:#d49000;fill-opacity:1;fill-rule:evenodd;stroke:#ffc843;stroke-width:.625;stroke-linejoin:round;stroke-opacity:1"/></marker><marker id="Arrow2Send" orient="auto" refX="0" refY="0" style="overflow:visible"><path id="path854" d="M 8.7185878,4.0337352 -2.2072895,0.01601326 8.7185884,-4.0017078 c -1.7454984,2.3720609 -1.7354408,5.6174519 -6e-7,8.035443 z" transform="matrix(-0.3,0,0,-0.3,0.69,0)" style="fill:#d49000;fill-opacity:1;fill-rule:evenodd;stroke:#ffc843;stroke-width:.625;stroke-linejoin:round;stroke-opacity:1"/></marker><marker id="Arrow1Send" orient="auto" refX="0" refY="0" style="overflow:visible"><path id="path836" d="M 0,0 5,-5 -12.5,0 5,5 Z" transform="matrix(-0.2,0,0,-0.2,-1.2,0)" style="fill:#d49000;fill-opacity:1;fill-rule:evenodd;stroke:#ffc843;stroke-width:1.00000003pt;stroke-opacity:1"/></marker><marker id="Arrow2Mend" orient="auto" refX="0" refY="0" style="overflow:visible"><path id="path848" d="M 8.7185878,4.0337352 -2.2072895,0.01601326 8.7185884,-4.0017078 c -1.7454984,2.3720609 -1.7354408,5.6174519 -6e-7,8.035443 z" transform="scale(-0.6)" style="fill:#000;fill-opacity:1;fill-rule:evenodd;stroke:#000;stroke-width:.625;stroke-linejoin:round;stroke-opacity:1"/></marker><marker id="TriangleOutS-3" orient="auto" refX="0" refY="0" style="overflow:visible"><path id="path969-6" d="M 5.77,0 -2.88,5 V -5 Z" transform="scale(0.2)" style="fill:#ffc843;fill-opacity:1;fill-rule:evenodd;stroke:#ffc843;stroke-width:1.00000003pt;stroke-opacity:1"/></marker><marker style="overflow:visible" id="marker2014-5" orient="auto" refX="0" refY="0"><path style="fill:#ffc843;fill-opacity:1;fill-rule:evenodd;stroke:#ffc843;stroke-width:1.00000003pt;stroke-opacity:1" id="path2012-3" d="M 5.77,0 -2.88,5 V -5 Z" transform="scale(0.2)"/></marker></defs><metadata id="metadata5"/><g id="layer1" transform="translate(-4.932083,-12.213331)"><circle style="opacity:1;fill:#d49000;fill-opacity:1;stroke:#ffc843;stroke-width:3.36500001;stroke-linecap:round;stroke-linejoin:round;stroke-miterlimit:4;stroke-dasharray:none;stroke-dashoffset:0;stroke-opacity:1" id="path817" cx="21.167" cy="28.448" r="14.552"/><path style="opacity:1;fill:none;fill-opacity:1;stroke:#ffc843;stroke-width:2.86500001;stroke-linecap:round;stroke-linejoin:round;stroke-miterlimit:4;stroke-dasharray:none;stroke-dashoffset:0;stroke-opacity:1;marker-end:url(#marker2014);paint-order:normal" id="path1654" d="m 37.500121,20.493929 a 7.2760415,7.2760415 0 0 1 -4.316609,6.646995 7.2760415,7.2760415 0 0 1 -7.828055,-1.239842" transform="rotate(19.647129)"/><path style="opacity:1;fill:none;fill-opacity:1;stroke:#ffc843;stroke-width:2.86500001;stroke-linecap:round;stroke-linejoin:round;stroke-miterlimit:4;stroke-dasharray:none;stroke-dashoffset:0;stroke-opacity:1;marker-end:url(#marker2014-5);paint-order:normal" id="path1654-5" d="m -21.841463,-18.626911 a 7.2760415,7.2760415 0 0 1 -4.316608,6.646994 7.2760415,7.2760415 0 0 1 -7.828055,-1.239842" transform="rotate(-160.35287)"/></g></svg>